<?xml version="1.0" encoding="utf-8"?>
<!-- Generator: Adobe Illustrator 23.0.3, SVG Export Plug-In . SVG Version: 6.00 Build 0)  -->
<svg version="1.1" id="Layer_5" xmlns="http://www.w3.org/2000/svg" xmlns:xlink="http://www.w3.org/1999/xlink" x="0px" y="0px"
	 viewBox="0 0 850.39 850.39" style="enable-background:new 0 0 850.39 850.39;" xml:space="preserve">
<style type="text/css">
	.st0{fill:none;stroke:#000000;stroke-width:6;stroke-miterlimit:10;}
	.st1{stroke:#000000;stroke-miterlimit:10;}
</style>
<circle class="st0" cx="430.87" cy="424.95" r="243.63"/>
<g>
	<path class="st1" d="M619.67,345.76c-5.69-13.8,21.34-25.18,10.42-53.54L590,351.36c-2.96,4.37-0.5,10.35,4.68,11.35l70.15,13.67
		C650.12,342.23,625.38,359.6,619.67,345.76z"/>
</g>
<g>
	<path class="st1" d="M619.46,502.09c5.73-13.78,32.9-2.71,45.22-30.49l-70.16,13.47c-5.18,1-7.67,6.96-4.72,11.34l39.94,59.27
		C643.49,521.12,613.71,515.91,619.46,502.09z"/>
</g>
<g>
	<path class="st1" d="M508.77,612.48c13.8-5.69,25.18,21.34,53.54,10.42l-59.14-40.09c-4.37-2.96-10.35-0.5-11.35,4.68l-13.67,70.15
		C512.3,642.92,494.94,618.18,508.77,612.48z"/>
</g>
<g>
	<path class="st1" d="M352.45,612.26c13.78,5.73,2.71,32.9,30.49,45.22l-13.47-70.16c-1-5.18-6.96-7.67-11.34-4.72l-59.27,39.94
		C333.42,636.29,338.63,606.52,352.45,612.26z"/>
</g>
<g>
	<path class="st1" d="M242.06,501.57c5.69,13.8-21.34,25.18-10.42,53.54l40.09-59.14c2.96-4.37,0.5-10.35-4.68-11.35l-70.15-13.67
		C211.61,505.11,236.35,487.74,242.06,501.57z"/>
</g>
<g>
	<path class="st1" d="M242.27,345.25c-5.73,13.78-32.9,2.71-45.22,30.49l70.16-13.47c5.18-1,7.67-6.96,4.72-11.34l-39.94-59.27
		C218.24,326.22,248.02,331.43,242.27,345.25z"/>
</g>
<g>
	<path class="st1" d="M352.96,234.86c-13.8,5.69-25.18-21.34-53.54-10.42l59.14,40.09c4.37,2.96,10.35,0.5,11.35-4.68l13.67-70.15
		C349.43,204.41,366.8,229.15,352.96,234.86z"/>
</g>
<g>
	<path class="st1" d="M509.29,235.07c-13.78-5.73-2.71-32.9-30.49-45.22l13.47,70.16c1,5.18,6.96,7.67,11.34,4.72l59.27-39.94
		C528.32,211.04,523.11,240.82,509.29,235.07z"/>
</g>
<g>
	<path class="st1" d="M574.6,380.28c-6.15,1.71-12.27,0.01-16.62-3.76c-0.34-0.67-0.78-1.3-1.35-1.88v0c-1.6-1.6-2.83-3.42-3.7-5.34
		c-0.74-1.97-1.16-4.11-1.16-6.38v0c0-0.81-0.14-1.57-0.37-2.28c0.41-5.74,3.54-11.26,9.09-14.41l13.24-7.49L511.99,277l-7.49,13.24
		c-3.14,5.56-8.66,8.68-14.41,9.09c-0.71-0.23-1.47-0.37-2.28-0.37c-2.27,0-4.41-0.41-6.38-1.16c-1.92-0.87-3.73-2.09-5.33-3.69l0,0
		c-0.57-0.57-1.21-1.01-1.88-1.35c-3.77-4.35-5.46-10.46-3.76-16.62l4.07-14.66H387.2l4.07,14.66c1.71,6.15,0.01,12.27-3.76,16.62
		c-0.67,0.34-1.3,0.78-1.88,1.35l0,0c-1.6,1.6-3.41,2.83-5.34,3.7c-1.97,0.74-4.12,1.16-6.38,1.16h0c-0.81,0-1.57,0.14-2.28,0.37
		c-5.74-0.41-11.26-3.54-14.41-9.09L349.74,277l-61.75,61.75l13.24,7.49c5.56,3.14,8.68,8.66,9.09,14.41
		c-0.23,0.71-0.37,1.47-0.37,2.28v0c0,2.27-0.41,4.41-1.16,6.39c-0.87,1.92-2.09,3.73-3.69,5.33v0c-0.57,0.57-1.01,1.21-1.35,1.88
		c-4.35,3.77-10.46,5.46-16.62,3.76l-14.66-4.07v87.33l14.66-4.07c6.15-1.71,12.27-0.01,16.62,3.76c0.34,0.67,0.78,1.3,1.35,1.88h0
		c1.6,1.6,2.83,3.42,3.7,5.34c0.74,1.97,1.16,4.11,1.16,6.38v0c0,0.81,0.14,1.57,0.37,2.28c-0.41,5.74-3.54,11.26-9.09,14.41
		L287.99,501l61.75,61.75l7.49-13.24c3.14-5.56,8.66-8.68,14.41-9.09c0.71,0.23,1.47,0.37,2.28,0.37c2.27,0,4.41,0.41,6.38,1.16
		c1.92,0.87,3.73,2.09,5.33,3.69l0,0c0.57,0.57,1.21,1.01,1.88,1.35c3.77,4.35,5.46,10.46,3.76,16.62l-4.07,14.66h87.33l-4.07-14.66
		c-1.71-6.15-0.01-12.27,3.76-16.62c0.67-0.34,1.3-0.78,1.88-1.35h0c1.6-1.6,3.42-2.83,5.34-3.7c1.97-0.74,4.11-1.16,6.38-1.16h0
		c0.81,0,1.57-0.14,2.28-0.37c5.74,0.41,11.26,3.54,14.41,9.09l7.49,13.24L573.74,501l-13.24-7.49c-5.56-3.14-8.68-8.66-9.09-14.41
		c0.23-0.71,0.37-1.47,0.37-2.28v0c0-2.27,0.41-4.42,1.16-6.39c0.87-1.92,2.09-3.73,3.69-5.33h0c0.57-0.57,1.01-1.21,1.35-1.88
		c4.35-3.77,10.46-5.46,16.62-3.76l14.66,4.07v-87.33L574.6,380.28z M532.59,462.01L473,521.6h-84.27l-59.59-59.59v-84.27
		l59.59-59.59H473l59.59,59.59V462.01z"/>
	<path class="st1" d="M429.93,417.62l-0.08,0.38l0.03,0.11c0.16-0.04,0.33-0.05,0.5-0.07l-0.12-0.21L429.93,417.62z"/>
</g>
<path class="st1" d="M430.87,337.09c-45.36,0-82.13,37.06-82.13,82.79c0,45.72,36.77,82.79,82.13,82.79S513,465.6,513,419.88
	C513,374.16,476.23,337.09,430.87,337.09z M430.87,481.57c-33.8,0-61.2-27.62-61.2-61.69s27.4-61.69,61.2-61.69
	c33.8,0,61.2,27.62,61.2,61.69S464.67,481.57,430.87,481.57z"/>
<g id="Layer_6">
	<polygon class="st1" points="476.86,402.04 446.73,402.04 446.73,371.9 415.01,371.9 415.01,402.04 384.87,402.04 384.87,433.76 
		415.01,433.76 415.01,463.9 446.73,463.9 446.73,433.76 476.86,433.76 	"/>
</g>
</svg>
